<?xml version="1.0" encoding="UTF-8"?>
<svg width="290px" height="186px" viewBox="0 0 290 186" version="1.1" xmlns="http://www.w3.org/2000/svg" xmlns:xlink="http://www.w3.org/1999/xlink">
    <!-- Generator: Sketch 63.1 (92452) - https://sketch.com -->
    <title>Artboard</title>
    <desc>Created with Sketch.</desc>
    <g id="Artboard" stroke="none" stroke-width="1" fill="none" fill-rule="evenodd">
        <rect id="Rectangle" fill="#000000" x="20" y="20" width="10" height="120"></rect>
        <rect id="Rectangle" fill="#000000" x="40" y="20" width="5" height="108"></rect>
        <rect id="Rectangle" fill="#000000" x="55" y="32" width="5" height="108"></rect>
        <rect id="Rectangle" fill="#000000" x="70" y="20" width="5" height="96"></rect>
        <rect id="Rectangle" fill="#000000" x="85" y="44" width="5" height="96"></rect>
        <rect id="Rectangle" fill="#000000" x="100" y="20" width="5" height="84"></rect>
        <rect id="Rectangle" fill="#000000" x="115" y="56" width="5" height="84"></rect>
        <rect id="Rectangle" fill="#000000" x="130" y="20" width="5" height="72"></rect>
        <rect id="Rectangle" fill="#000000" x="145" y="68" width="5" height="72"></rect>
        <rect id="Rectangle" fill="#000000" x="160" y="20" width="5" height="60"></rect>
        <rect id="Rectangle" fill="#000000" x="175" y="80" width="5" height="60"></rect>
        <rect id="Rectangle" fill="#000000" x="190" y="20" width="5" height="48"></rect>
        <rect id="Rectangle" fill="#000000" x="205" y="92" width="5" height="48"></rect>
        <rect id="Rectangle" fill="#000000" x="220" y="20" width="5" height="36"></rect>
        <rect id="Rectangle" fill="#000000" x="235" y="104" width="5" height="36"></rect>
        <rect id="Rectangle" fill="#000000" x="250" y="20" width="5" height="24"></rect>
        <rect id="Rectangle" fill="#000000" x="265" y="116" width="5" height="24"></rect>
        <text id="0-1-2-3-4-5-6-7-8-9" font-family="SFMono-Bold, SF Mono" font-size="12.3" font-weight="bold" fill="#000000">
            <tspan x="36" y="163">0 1 2 3 4 5 6 7 8 9 a b c d e f</tspan>
        </text>
    </g>
</svg>